# xmcd CD database file
#
# Track frame offsets:
#	150
#	11885
#	22746
#	36466
#	53558
#	66947
#	83353
#	97329
#	111335
#	123502
#	138827
#	150597
#	165683
#
# Disc length: 2464 seconds
#
# Revision: 0
# Processed by: cddbd v1.5.2PL0 Copyright (c) Steve Scherf et al.
# Submitted via: CDex 1.81
#
DISCID=a5099e0d
DTITLE=Jacqueline van der Griend - Sings The Hits Of Emmylou Harris
DYEAR=2003
DGENRE=Country
TTITLE0=It's Not Love (But It's Not Bad)
TTITLE1=Feelin' Single Seein' Double
TTITLE2=One Of These Days
TTITLE3=Making Believe
TTITLE4=Two More Bottles Of Wine
TTITLE5=Beneath Still Waters
TTITLE6=Long May You Run
TTITLE7=Devin In Disguise
TTITLE8=Juanita
TTITLE9=(You Never Can Tell) C'Est La Vie
TTITLE10=If I Could Only Win Your Love
TTITLE11=(Lost His Love) On Our Last Date
TTITLE12=Even Cowgirls Get The Blues
EXTD=YEAR: 2003
EXTT0=
EXTT1=
EXTT2=
EXTT3=
EXTT4=
EXTT5=
EXTT6=
EXTT7=
EXTT8=
EXTT9=
EXTT10=
EXTT11=
EXTT12=
PLAYORDER=
